<?xml version="1.0" encoding="UTF-8"?>
<!-- Generator: https://ezgif.com/png-to-svg -->
<svg version="1.1" xmlns="http://www.w3.org/2000/svg" width="100" height="100">
<path d="M0 0 C21.12 0 42.24 0 64 0 C64 29.04 64 58.08 64 88 C60.04 88 56.08 88 52 88 C52 87.34 52 86.68 52 86 C41.6 86.5 41.6 86.5 31 87 C31.33 87.66 31.66 88.32 32 89 C32.19 92.5 32.19 92.5 32 96 C30 98 30 98 26.62 98.44 C23 98 23 98 20.69 95.75 C19.33 93.53 18.14 91.33 17 89 C12.77 88.77 8.55 88.63 4.31 88.5 C3.11 88.43 1.92 88.37 0.68 88.3 C-5.63 87.92 -5.63 87.92 -10.91 90.78 C-12.17 92.81 -13.12 94.78 -14 97 C-15 98 -15 98 -18.44 98.19 C-22 98 -22 98 -24 96 C-24.09 93.79 -24.09 93.79 -23.94 91.19 C-23.86 86.77 -24.33 84.62 -27 81 C-28.01 78.97 -28.98 76.92 -29.94 74.87 C-30.92 72.93 -30.92 72.93 -32.6 71.5 C-34 70 -34 70 -34.38 66.06 C-34.27 63.24 -34.02 62.04 -32.62 59.5 C-31 58 -31 58 -29 58 C-28.97 57.42 -28.95 56.84 -28.92 56.24 C-28.53 50.78 -27.67 47.29 -24 43 C-19 40 -19 40 0 40 C0 26.8 0 13.6 0 0 Z M4 4 C4 15.88 4 27.76 4 40 C10.69 40.25 10.69 40.25 17.37 40.48 C18.21 40.51 19.05 40.55 19.92 40.59 C21.2 40.63 21.2 40.63 22.5 40.68 C25 41 25 41 30 43 C30 30.13 30 17.26 30 4 C21.42 4 12.84 4 4 4 Z M34 4 C33.98 10.89 33.96 17.77 33.95 24.66 C33.94 27 33.93 29.35 33.92 31.69 C33.91 35.06 33.91 38.42 33.9 41.79 C33.9 42.84 33.89 43.88 33.89 44.96 C33.89 45.94 33.89 46.92 33.89 47.93 C33.88 48.79 33.88 49.65 33.88 50.54 C34.01 53.14 34.32 55.48 35 58 C35.68 58.6 36.36 59.2 37.06 59.81 C39.43 62.48 39.63 64.46 39.46 67.98 C38.68 71.39 36.31 73.47 34 76 C33.34 77.98 32.68 79.96 32 82 C41.24 82 50.48 82 60 82 C60 56.26 60 30.52 60 4 C51.42 4 42.84 4 34 4 Z M-21.88 48.75 C-23.39 51.78 -23.68 54.65 -24 58 C-23.24 58.37 -22.47 58.74 -21.69 59.12 C-18.47 61.37 -17.62 63.49 -16 67 C-15.18 66.89 -15.18 66.89 -14.34 66.78 C-1.83 65.22 9.56 64.88 22 67 C22.33 66.43 22.65 65.87 22.99 65.29 C23.43 64.55 23.86 63.82 24.31 63.06 C24.74 62.33 25.17 61.6 25.61 60.85 C27 59 27 59 30 58 C29.59 52.76 28.87 49.66 25 46 C18.57 43.32 12.09 43.66 5.26 43.68 C3.07 43.69 0.89 43.66 -1.3 43.64 C-2.71 43.64 -4.12 43.64 -5.53 43.64 C-6.79 43.63 -8.06 43.63 -9.36 43.63 C-14.19 44.12 -18.25 45.36 -21.88 48.75 Z M-27 62 C-27.66 62.66 -28.32 63.32 -29 64 C-28.79 66.75 -28.62 68.42 -26.57 70.34 C-24.06 72.99 -23.37 76.3 -22.26 79.72 C-20.56 82.8 -19.37 83.01 -16 84 C-13.09 84.19 -10.28 84.28 -7.38 84.27 C-6.55 84.27 -5.73 84.27 -4.88 84.27 C-3.14 84.27 -1.4 84.27 0.34 84.26 C2.99 84.25 5.64 84.26 8.3 84.27 C9.99 84.27 11.68 84.27 13.38 84.27 C14.16 84.27 14.95 84.27 15.77 84.28 C19.92 84.24 23.34 84.06 27 82 C28.58 79.23 28.58 79.23 29.62 76 C31.7 70.2 31.7 70.2 35 68 C34.5 65.53 34.5 65.53 34 63 C32.68 62.67 31.36 62.34 30 62 C27.79 65.58 25.85 69.22 24 73 C23.35 72.8 22.69 72.59 22.02 72.38 C8.19 68.3 -4.32 68.44 -18 73 C-18.31 72.29 -18.63 71.58 -18.95 70.85 C-19.6 69.47 -19.6 69.47 -20.25 68.06 C-20.67 67.15 -21.09 66.23 -21.52 65.29 C-22.79 62.87 -22.79 62.87 -25.05 62.06 C-25.69 62.04 -26.34 62.02 -27 62 Z M-18 88 C-18.33 89.65 -18.66 91.3 -19 93 C-18.34 93 -17.68 93 -17 93 C-16.34 91.35 -15.68 89.7 -15 88 C-15.99 88 -16.98 88 -18 88 Z M23 88 C23.66 89.65 24.32 91.3 25 93 C25.66 93 26.32 93 27 93 C26.67 91.35 26.34 89.7 26 88 C25.01 88 24.02 88 23 88 Z " fill="#B78B49" transform="translate(34,2)"/>
<path d="M0 0 C1.32 0 2.64 0 4 0 C4 3.3 4 6.6 4 10 C2.68 10 1.36 10 0 10 C0 6.7 0 3.4 0 0 Z " fill="#B78A49" transform="translate(74,42)"/>
</svg>
