<?xml version="1.0" encoding="UTF-8"?>
<!-- Generator: https://ezgif.com/png-to-svg -->
<svg version="1.1" xmlns="http://www.w3.org/2000/svg" width="64" height="64">
<path d="M0 0 C1.98 0 3.96 0 6 0 C6 0.66 6 1.32 6 2 C4.68 2 3.36 2 2 2 C2 6.62 2 11.24 2 16 C7.94 16 13.88 16 20 16 C20 11.38 20 6.76 20 2 C16.04 2 12.08 2 8 2 C8 1.34 8 0.68 8 0 C12.5 -0.12 17 -0.19 21.5 -0.25 C23.4 -0.3 23.4 -0.3 25.34 -0.35 C33.8 -0.44 39.44 0.07 46.02 5.75 C46.69 6.58 46.69 6.58 47.38 7.44 C47.84 7.99 48.3 8.55 48.77 9.12 C51.52 13.33 52.25 16.82 52.12 21.81 C52.11 22.79 52.09 23.76 52.07 24.77 C52.05 25.51 52.02 26.24 52 27 C51.01 27 50.02 27 49 27 C48.51 25.02 48.51 25.02 48 23 C46.35 25.64 44.7 28.28 43 31 C44.32 31.66 45.64 32.32 47 33 C47.66 31.35 48.32 29.7 49 28 C49.66 28 50.32 28 51 28 C50.67 29.95 50.35 31.91 50.02 33.86 C49.82 36.02 49.82 36.02 50.97 37.75 C52.53 41.15 52.21 44.58 52.12 48.25 C52.12 49 52.11 49.74 52.1 50.51 C52.07 52.34 52.04 54.17 52 56 C50.35 56 48.7 56 47 56 C46.34 57.32 45.68 58.64 45 60 C39.61 60.35 39.61 60.35 37 60 C35.25 58 35.25 58 34 56 C32.68 56 31.36 56 30 56 C29.34 57.32 28.68 58.64 28 60 C22.72 60 17.44 60 12 60 C12 59.34 12 58.68 12 58 C15.3 58 18.6 58 22 58 C22 57.34 22 56.68 22 56 C18.7 56 15.4 56 12 56 C12 53.03 12 50.06 12 47 C11.34 47 10.68 47 10 47 C10 51.29 10 55.58 10 60 C6.04 60 2.08 60 -2 60 C-2 58.02 -2 56.04 -2 54 C-0.68 54 0.64 54 2 54 C2 52.35 2 50.7 2 49 C2.66 49 3.32 49 4 49 C4 50.65 4 52.3 4 54 C5.32 54 6.64 54 8 54 C8 50.04 8 46.08 8 42 C6.68 42 5.36 42 4 42 C4 43.65 4 45.3 4 47 C3.34 47 2.68 47 2 47 C1.87 40.25 1.87 40.25 3 38 C1.52 38.49 1.52 38.49 0 39 C0.02 40.13 0.04 41.27 0.06 42.44 C0 46 0 46 -1 47 C-4 47.12 -4 47.12 -7 47 C-8 46 -8 46 -8.06 42.44 C-8.04 41.3 -8.02 40.17 -8 39 C-6.68 39 -5.36 39 -4 39 C-4.33 35.04 -4.66 31.08 -5 27 C-5.33 30.3 -5.66 33.6 -6 37 C-6.66 37 -7.32 37 -8 37 C-8 32.71 -8 28.42 -8 24 C-6.68 23.34 -5.36 22.68 -4 22 C-4 21.34 -4 20.68 -4 20 C-1.03 20 1.94 20 5 20 C5 19.34 5 18.68 5 18 C3.35 18 1.7 18 0 18 C0 16.68 0 15.36 0 14 C-1.32 14 -2.64 14 -4 14 C-4 13.34 -4 12.68 -4 12 C-5.32 12 -6.64 12 -8 12 C-8 10.02 -8 8.04 -8 6 C-6.68 6 -5.36 6 -4 6 C-4 5.34 -4 4.68 -4 4 C-2.68 4 -1.36 4 0 4 C0 2.68 0 1.36 0 0 Z M23 3 C23.99 3.33 24.98 3.66 26 4 C26.33 4.66 26.66 5.32 27 6 C28.98 5.34 30.96 4.68 33 4 C33 3.67 33 3.34 33 3 C29.7 3 26.4 3 23 3 Z M-2 6 C-2 7.98 -2 9.96 -2 12 C-1.34 12 -0.68 12 0 12 C0 10.02 0 8.04 0 6 C-0.66 6 -1.32 6 -2 6 Z M22 6 C22 7.98 22 9.96 22 12 C22.66 12 23.32 12 24 12 C24 10.02 24 8.04 24 6 C23.34 6 22.68 6 22 6 Z M30 7 C30 8.65 30 10.3 30 12 C33.96 9.52 33.96 9.52 38 7 C34.3 6.07 33.37 5.92 30 7 Z M-5 8 C-4 10 -4 10 -4 10 Z M26 8 C27 10 27 10 27 10 Z M42 8 C36.19 10.78 30.62 14.51 26 19 C26 19.99 26 20.98 26 22 C27.48 22.99 27.48 22.99 29 24 C29.7 26.66 29.78 29.24 30 32 C33.08 32.42 35.03 32.69 38 32 C42.15 28.38 44.9 23.37 46 18 C45.57 15.87 45.57 15.87 45 14 C44.49 14.74 43.98 15.47 43.46 16.23 C39.71 21.55 36.29 26.16 31 30 C33.07 26.1 35.09 22.77 38.06 19.5 C41 16.22 42.49 13.12 44 9 C43.34 8.67 42.68 8.34 42 8 Z M26 12 C26 12.66 26 13.32 26 14 C24.68 14 23.36 14 22 14 C22 15.32 22 16.64 22 18 C20.35 18 18.7 18 17 18 C17 18.66 17 19.32 17 20 C19.2 20.59 19.2 20.59 22 20 C24.57 17.88 26.79 15.49 29 13 C28.01 12.67 27.02 12.34 26 12 Z M7 18 C7 18.66 7 19.32 7 20 C9.64 20 12.28 20 15 20 C15 19.34 15 18.68 15 18 C12.36 18 9.72 18 7 18 Z M-2 22 C-2 26.62 -2 31.24 -2 36 C6.58 36 15.16 36 24 36 C24 31.38 24 26.76 24 22 C15.42 22 6.84 22 -2 22 Z M26 25 C26 29.62 26 34.24 26 39 C26.66 39 27.32 39 28 39 C28.05 37.04 28.09 35.08 28.12 33.12 C28.15 32.03 28.17 30.94 28.2 29.82 C28.3 26.86 28.3 26.86 26 25 Z M30 34 C30 37.3 30 40.6 30 44 C30.66 44 31.32 44 32 44 C32 41.36 32 38.72 32 36 C32.66 36 33.32 36 34 36 C34 39.3 34 42.6 34 46 C30.37 46 26.74 46 23 46 C22.67 43.69 22.34 41.38 22 39 C22.66 38.67 23.32 38.34 24 38 C22.35 38 20.7 38 19 38 C19.33 41.3 19.66 44.6 20 48 C22.64 48.33 25.28 48.66 28 49 C28.66 50.65 29.32 52.3 30 54 C32.44 53.81 32.44 53.81 35 53 C36.36 51.03 36.36 51.03 37 49 C39.64 49 42.28 49 45 49 C45.66 50.65 46.32 52.3 47 54 C47.99 54 48.98 54 50 54 C50.38 47.84 50.04 43.44 47 38 C43.2 34.32 39.38 33.86 34.25 33.94 C32.85 33.96 31.45 33.98 30 34 Z M5 38 C5 38.66 5 39.32 5 40 C6.65 40 8.3 40 10 40 C10 41.65 10 43.3 10 45 C10.66 45 11.32 45 12 45 C12 43.35 12 41.7 12 40 C13.65 40 15.3 40 17 40 C17 39.34 17 38.68 17 38 C13.04 38 9.08 38 5 38 Z M-6 41 C-5.67 41.99 -5.34 42.98 -5 44 C-4.01 43.67 -3.02 43.34 -2 43 C-2.33 42.34 -2.66 41.68 -3 41 C-3.99 41 -4.98 41 -6 41 Z M25 41 C25 41.99 25 42.98 25 44 C25.99 43.67 26.98 43.34 28 43 C28 42.34 28 41.68 28 41 C27.01 41 26.02 41 25 41 Z M14 42 C14 45.96 14 49.92 14 54 C15.32 54 16.64 54 18 54 C18 50.04 18 46.08 18 42 C16.68 42 15.36 42 14 42 Z M22 51 C21.67 51.99 21.34 52.98 21 54 C22.32 53.67 23.64 53.34 25 53 C24.67 54.32 24.34 55.64 24 57 C24.99 56.67 25.98 56.34 27 56 C26.67 54.35 26.34 52.7 26 51 C24.68 51 23.36 51 22 51 Z M39 51 C38.67 52.65 38.34 54.3 38 56 C40.48 56.49 40.48 56.49 43 57 C43.33 55.35 43.66 53.7 44 52 C42.35 51.67 40.7 51.34 39 51 Z M0 56 C0 56.66 0 57.32 0 58 C2.64 58 5.28 58 8 58 C8 57.34 8 56.68 8 56 C5.36 56 2.72 56 0 56 Z " fill="#B78B49" transform="translate(10,2)"/>
<path d="M0 0 C4.37 -0.43 6.35 -0.49 9.94 2.19 C12 5 12 5 12 10 C8.04 10 4.08 10 0 10 C0 6.7 0 3.4 0 0 Z M2 2 C2 3.98 2 5.96 2 8 C4.31 8 6.62 8 9 8 C7.9 5.01 7.32 4.15 4.38 2.75 C3.59 2.5 2.81 2.26 2 2 Z " fill="#B78A4A" transform="translate(46,38)"/>
<path d="M0 0 C5.28 0 10.56 0 16 0 C16 1.98 16 3.96 16 6 C10.72 6 5.44 6 0 6 C0 4.02 0 2.04 0 0 Z M2 2 C2 2.66 2 3.32 2 4 C5.96 4 9.92 4 14 4 C14 3.34 14 2.68 14 2 C10.04 2 6.08 2 2 2 Z " fill="#B78A49" transform="translate(13,26)"/>
<path d="M0 0 C1.98 0 3.96 0 6 0 C6 1.98 6 3.96 6 6 C4.02 6 2.04 6 0 6 C0 4.02 0 2.04 0 0 Z " fill="#B78B48" transform="translate(22,6)"/>
<path d="M0 0 C1.98 0 3.96 0 6 0 C6 1.98 6 3.96 6 6 C4.02 6 2.04 6 0 6 C0 4.02 0 2.04 0 0 Z " fill="#B5894A" transform="translate(14,6)"/>
<path d="M0 0 C3.3 0 6.6 0 10 0 C10 0.66 10 1.32 10 2 C6.7 2 3.4 2 0 2 C0 1.34 0 0.68 0 0 Z " fill="#B78A49" transform="translate(16,34)"/>
<path d="M0 0 C1.98 0 3.96 0 6 0 C6 0.66 6 1.32 6 2 C4.02 2 2.04 2 0 2 C0 1.34 0 0.68 0 0 Z " fill="#B78A49" transform="translate(18,14)"/>
<path d="M0 0 C0.66 0 1.32 0 2 0 C2 0.66 2 1.32 2 2 C1.34 2 0.68 2 0 2 C0 1.34 0 0.68 0 0 Z " fill="#B78A49" transform="translate(50,55)"/>
</svg>
